<svg width="751" height="751" viewBox="0 0 751 751" fill="none" xmlns="http://www.w3.org/2000/svg">
<path d="M0 222C0 99.3928 99.3928 0 222 0H529C651.607 0 751 99.3928 751 222V529C751 651.607 651.607 751 529 751H222C99.3928 751 0 651.607 0 529V222Z" fill="black"/>
<path d="M610 211V540H549.818L406.444 332.929H404.03V540H334.354V211H395.502L537.75 417.91H540.646V211H610Z" fill="white"/>
<path d="M141.322 540V498.714L305.776 268.35H141V211H393.313V252.286L228.698 482.65H393.635V540H141.322Z" fill="white"/>
</svg>
